<svg id="Layer_1" data-name="Layer 1" xmlns="http://www.w3.org/2000/svg" viewBox="0 0 1325.79 88.07"><defs><style>.cls-1,.cls-3{fill:#b63731;}.cls-2{fill:#002259;}.cls-3{font-size:42.09px;font-family:Tahoma-Bold, Tahoma;font-weight:700;}</style></defs><polygon points="0.49 44.28 0 43.79 0.04 43.79 0.49 44.28"/><path class="cls-1" d="M-833.51,75l0,0s0,0,0,0l0,0Z" transform="translate(833.79 -30.97)"/><path class="cls-1" d="M-833.51,75l0,0s0,0,0,0l0,0Z" transform="translate(833.79 -30.97)"/><path class="cls-1" d="M-833.51,75l0,0s0,0,0,0l0,0Z" transform="translate(833.79 -30.97)"/><path class="cls-2" d="M78.54,46.7l-2,1.37-.11.07h0l1.2-1.28a1.11,1.11,0,0,1,.69-.32Z" transform="translate(833.79 -30.97)"/><path class="cls-2" d="M88.37,75a36.06,36.06,0,0,1-5.19,18.7l-.14.22a1.09,1.09,0,0,1,.08-.15,36.25,36.25,0,0,0-4-42.93.76.76,0,0,1,.09.09A36.14,36.14,0,0,1,88.37,75Z" transform="translate(833.79 -30.97)"/><path class="cls-2" d="M96.07,75a43.67,43.67,0,0,1-6.36,22.76,1.4,1.4,0,0,1-2.19.27,1.38,1.38,0,0,1-.41-1,1.43,1.43,0,0,1,.21-.74,41.16,41.16,0,0,0-5.48-49.78c-.49-.5-1-1-1.48-1.46l-.53-.49-1-.92a41.14,41.14,0,0,0-49-3.35c-.8.5-1.58,1-2.33,1.61l-.55.41c-.74.56-1.46,1.16-2.15,1.79-.42.35-.82.73-1.23,1.12-.67.64-1.32,1.31-1.94,2q-.24.26-.45.51c-.63.69-1.22,1.41-1.79,2.15a41.22,41.22,0,0,0,40.2,65.67c.7-.13,1.38-.28,2.06-.44a41,41,0,0,0,13.23-5.77,1,1,0,0,0,.41-1.22,1.66,1.66,0,0,0-.13-.27,2.48,2.48,0,0,0-.37-.47,1,1,0,0,0-1.27-.07A38,38,0,0,1,63.63,112a39.07,39.07,0,0,1-23.43,0A37.55,37.55,0,0,1,15,86.83a39,39,0,0,1,6.49-35.71c.5-.65,1-1.28,1.58-1.9l.39-.44c.56-.6,1.13-1.19,1.72-1.75q.53-.51,1.08-1c.61-.55,1.24-1.08,1.89-1.58a4.37,4.37,0,0,1,.48-.37c.65-.51,1.33-1,2-1.44a38.74,38.74,0,0,1,45.16,1.71,1.24,1.24,0,0,1,.08,1.91,1.21,1.21,0,0,1-.81.31,1.28,1.28,0,0,1-.79-.27,36.24,36.24,0,0,0-41.86-1.88c-.69.45-1.38.91-2,1.42-.16.11-.33.23-.49.36-.65.5-1.28,1-1.89,1.57-.37.32-.73.65-1.09,1-.59.57-1.16,1.16-1.71,1.76a5.46,5.46,0,0,0-.39.45c-.56.61-1.08,1.23-1.58,1.89a36.32,36.32,0,0,0-6.93,28.77H21l1.95-2.16,1.52,2.1h4.68l1.13-3.65,1.57,3.44,2.92-17.13,2,19.5.88-2.1H44c.36-1,.84-1.78,1.65-1.8h0c.83,0,1.36.85,1.76,1.8H53a.7.7,0,0,1,.7.7h0a.7.7,0,0,1-.7.7H46.48l-.17-.45a4.76,4.76,0,0,0-.63-1.26,5,5,0,0,0-.53,1.21l0,.1-.19.38-.44,0H38.54l-2.65,6.28L34.38,74.58l-2,11.52-1.93-4.24L30.14,83H23.72l-.93-1.28L21.59,83h-5a36.33,36.33,0,0,0,47.82,26.11,36,36,0,0,0,8.24-4.27,1,1,0,0,1,.55-.19,3.75,3.75,0,0,1,1.15.15,3.84,3.84,0,0,1,.89.35,4.13,4.13,0,0,1,1.68,1.61,4.06,4.06,0,0,1,.51,1.41,4.23,4.23,0,0,1-.09,1.8,4.09,4.09,0,0,1-.66,1.38,1,1,0,0,1-.29.28,43.72,43.72,0,0,1-15,6.36,45.34,45.34,0,0,1-22.78-1A42.59,42.59,0,0,1,10,88.43a44.3,44.3,0,0,1,7.36-40.54c.57-.74,1.17-1.46,1.79-2.15l.45-.5c.63-.69,1.28-1.35,1.95-2,.4-.39.81-.76,1.22-1.13.7-.62,1.42-1.22,2.15-1.79l.54-.42c.75-.57,1.52-1.11,2.31-1.63a44,44,0,0,1,53.12,3.48l1.55,1.42c.45.42.88.86,1.31,1.3A43.88,43.88,0,0,1,96.07,75Z" transform="translate(833.79 -30.97)"/><path class="cls-2" d="M82.44,43.18l-1.55-1.42.86.77Z" transform="translate(833.79 -30.97)"/><path class="cls-2" d="M78.54,46.7l-2,1.37-.11.07h0l1.2-1.28a1.11,1.11,0,0,1,.69-.32Z" transform="translate(833.79 -30.97)"/><path class="cls-2" d="M88.37,75a36.06,36.06,0,0,1-5.19,18.7l-.14.22a1.09,1.09,0,0,1,.08-.15,36.25,36.25,0,0,0-4-42.93.76.76,0,0,1,.09.09A36.14,36.14,0,0,1,88.37,75Z" transform="translate(833.79 -30.97)"/><path class="cls-1" d="M82.52,108.34h0l-.15-.15-.11-.13-.65-.7L80,105.66l-.2-.21L78.36,104a2.81,2.81,0,0,1,0-3.93s0,0,0,0c.39-.4.76-.81,1.12-1.23.62-.7,1.21-1.43,1.76-2.18.14-.18.27-.36.4-.55.51-.7,1-1.41,1.42-2.15h0l.14-.22a36.27,36.27,0,0,0-4-42.77.76.76,0,0,0-.09-.09,1,1,0,0,0-.68-.26,1.06,1.06,0,0,0-.77.33,1,1,0,0,0,0,1.42,34.15,34.15,0,0,1,4,39.84,27.86,27.86,0,0,1-1.54,2.4c-.12.19-.26.37-.39.56a2.42,2.42,0,0,1-3.66.28L76,95.35,66.68,86a4.49,4.49,0,0,1-3,.41,4.55,4.55,0,1,1,5.37-5.37,4.49,4.49,0,0,1-.41,3l9.07,9.06h0a32.87,32.87,0,0,0,1.88-3,31.38,31.38,0,0,0-4.5-36.46,26.29,26.29,0,0,0-2-2,31.39,31.39,0,0,0-36.21-4.26,32.87,32.87,0,0,0-3,1.88h0L43,58.38a4.54,4.54,0,1,1,1.48,8.55A4.54,4.54,0,0,1,41,60.35L31.68,51,31.62,51a2.42,2.42,0,0,1,.26-3.65h0c.19-.13.37-.27.56-.39a27.86,27.86,0,0,1,2.4-1.54,34.16,34.16,0,0,1,38.69,3l.73.6a1,1,0,0,0,1.44-.06l.66-.69.19-.16,1.14-1.22a1,1,0,0,1,1-.29h0a1,1,0,0,1,.48.26c.41.4.82.81,1.22,1.23a39.08,39.08,0,0,1,4.83,47.68c-.51.8-1,1.59-1.6,2.35l-.4.54c-.57.75-1.16,1.48-1.77,2.18h0a1.76,1.76,0,0,0,.08,2.4l.55.54.09.1,1.57,1.69.12.13c.1.1.24.27.45.48l.07.09-.09-.07a.35.35,0,0,0,.09.07h0c.16.15.41.36.51.48a1.4,1.4,0,0,0,2.18-.17c4.31-6.34,15.2-20.88,27.91-26.86v0a4.55,4.55,0,1,1,1.16,2.58C108.8,85.71,102,92.35,96.84,98.38A112.22,112.22,0,0,0,87.47,111a1.2,1.2,0,0,1-2.08.09Z" transform="translate(833.79 -30.97)"/><text class="cls-3" transform="translate(957.86 53.39)">DOCTOR’S QUIZZ</text></svg>